<mxfile host="Electron" modified="2025-01-30T16:18:11.808Z" agent="Mozilla/5.0 (Macintosh; Intel Mac OS X 10_15_7) AppleWebKit/537.36 (KHTML, like Gecko) draw.io/24.1.0 Chrome/120.0.6099.109 Electron/28.1.0 Safari/537.36" etag="f8HCNSg9pDAGB2xiij-r" version="24.1.0" type="device" pages="3">
  <diagram name="Overview of Data Flow" id="BgMDp90RqDYAUF7eblf4">
    <mxGraphModel dx="1460" dy="813" grid="1" gridSize="10" guides="1" tooltips="1" connect="1" arrows="1" fold="1" page="1" pageScale="1" pageWidth="850" pageHeight="1100" math="0" shadow="0">
      <root>
        <mxCell id="0" />
        <mxCell id="1" parent="0" />
        <mxCell id="mfC-1grWfwD6aIF15ioc-22" value="" style="edgeStyle=orthogonalEdgeStyle;rounded=0;orthogonalLoop=1;jettySize=auto;html=1;fontStyle=1" parent="1" source="mfC-1grWfwD6aIF15ioc-5" target="mfC-1grWfwD6aIF15ioc-6" edge="1">
          <mxGeometry relative="1" as="geometry" />
        </mxCell>
        <mxCell id="mfC-1grWfwD6aIF15ioc-5" value="Parameter Input File (Excel)" style="ellipse;whiteSpace=wrap;html=1;fontStyle=1" parent="1" vertex="1">
          <mxGeometry x="250" y="20" width="120" height="80" as="geometry" />
        </mxCell>
        <mxCell id="mfC-1grWfwD6aIF15ioc-23" value="" style="edgeStyle=orthogonalEdgeStyle;rounded=0;orthogonalLoop=1;jettySize=auto;html=1;fontStyle=1" parent="1" source="mfC-1grWfwD6aIF15ioc-6" target="mfC-1grWfwD6aIF15ioc-8" edge="1">
          <mxGeometry relative="1" as="geometry" />
        </mxCell>
        <mxCell id="mfC-1grWfwD6aIF15ioc-6" value="Upload Excel file to S3 (boto3)" style="rounded=0;whiteSpace=wrap;html=1;fontStyle=1" parent="1" vertex="1">
          <mxGeometry x="250" y="131" width="120" height="60" as="geometry" />
        </mxCell>
        <mxCell id="mfC-1grWfwD6aIF15ioc-25" value="" style="edgeStyle=orthogonalEdgeStyle;rounded=0;orthogonalLoop=1;jettySize=auto;html=1;fontStyle=1" parent="1" source="mfC-1grWfwD6aIF15ioc-7" target="mfC-1grWfwD6aIF15ioc-11" edge="1">
          <mxGeometry relative="1" as="geometry" />
        </mxCell>
        <mxCell id="mfC-1grWfwD6aIF15ioc-7" value="YAML files" style="shape=parallelogram;perimeter=parallelogramPerimeter;whiteSpace=wrap;html=1;fixedSize=1;fontStyle=1" parent="1" vertex="1">
          <mxGeometry x="250" y="310" width="120" height="60" as="geometry" />
        </mxCell>
        <mxCell id="mfC-1grWfwD6aIF15ioc-24" value="" style="edgeStyle=orthogonalEdgeStyle;rounded=0;orthogonalLoop=1;jettySize=auto;html=1;fontStyle=1" parent="1" source="mfC-1grWfwD6aIF15ioc-8" target="mfC-1grWfwD6aIF15ioc-7" edge="1">
          <mxGeometry relative="1" as="geometry" />
        </mxCell>
        <mxCell id="mfC-1grWfwD6aIF15ioc-8" value="&lt;div&gt;Read Excel file and convert to YAML files&amp;nbsp; (pandas, pyYAML)&lt;/div&gt;" style="rounded=0;whiteSpace=wrap;html=1;fontStyle=1" parent="1" vertex="1">
          <mxGeometry x="250" y="220" width="120" height="60" as="geometry" />
        </mxCell>
        <mxCell id="mfC-1grWfwD6aIF15ioc-27" value="" style="edgeStyle=orthogonalEdgeStyle;rounded=0;orthogonalLoop=1;jettySize=auto;html=1;fontStyle=1" parent="1" source="mfC-1grWfwD6aIF15ioc-10" target="mfC-1grWfwD6aIF15ioc-12" edge="1">
          <mxGeometry relative="1" as="geometry" />
        </mxCell>
        <mxCell id="mfC-1grWfwD6aIF15ioc-10" value="Serve via API (FastAPI)" style="rounded=0;whiteSpace=wrap;html=1;fontStyle=1" parent="1" vertex="1">
          <mxGeometry x="250" y="488" width="120" height="60" as="geometry" />
        </mxCell>
        <mxCell id="mfC-1grWfwD6aIF15ioc-26" value="" style="edgeStyle=orthogonalEdgeStyle;rounded=0;orthogonalLoop=1;jettySize=auto;html=1;fontStyle=1" parent="1" source="mfC-1grWfwD6aIF15ioc-11" target="mfC-1grWfwD6aIF15ioc-10" edge="1">
          <mxGeometry relative="1" as="geometry" />
        </mxCell>
        <mxCell id="mfC-1grWfwD6aIF15ioc-11" value="Upload YAML file to S3 (boto3)" style="rounded=0;whiteSpace=wrap;html=1;fontStyle=1" parent="1" vertex="1">
          <mxGeometry x="250" y="399" width="120" height="60" as="geometry" />
        </mxCell>
        <mxCell id="mfC-1grWfwD6aIF15ioc-28" value="" style="edgeStyle=orthogonalEdgeStyle;rounded=0;orthogonalLoop=1;jettySize=auto;html=1;fontStyle=1" parent="1" source="mfC-1grWfwD6aIF15ioc-12" target="mfC-1grWfwD6aIF15ioc-13" edge="1">
          <mxGeometry relative="1" as="geometry" />
        </mxCell>
        <mxCell id="mfC-1grWfwD6aIF15ioc-12" value="YAML file accessed by model" style="rounded=0;whiteSpace=wrap;html=1;fontStyle=1" parent="1" vertex="1">
          <mxGeometry x="250" y="577" width="120" height="60" as="geometry" />
        </mxCell>
        <mxCell id="mfC-1grWfwD6aIF15ioc-44" style="edgeStyle=orthogonalEdgeStyle;rounded=0;orthogonalLoop=1;jettySize=auto;html=1;entryX=0.5;entryY=0;entryDx=0;entryDy=0;fontStyle=1" parent="1" source="mfC-1grWfwD6aIF15ioc-13" target="mfC-1grWfwD6aIF15ioc-15" edge="1">
          <mxGeometry relative="1" as="geometry" />
        </mxCell>
        <mxCell id="mfC-1grWfwD6aIF15ioc-46" style="edgeStyle=orthogonalEdgeStyle;rounded=0;orthogonalLoop=1;jettySize=auto;html=1;entryX=0.5;entryY=0;entryDx=0;entryDy=0;fontStyle=1" parent="1" source="mfC-1grWfwD6aIF15ioc-13" target="mfC-1grWfwD6aIF15ioc-16" edge="1">
          <mxGeometry relative="1" as="geometry" />
        </mxCell>
        <mxCell id="mfC-1grWfwD6aIF15ioc-13" value="Model Run" style="rounded=0;whiteSpace=wrap;html=1;fontStyle=1" parent="1" vertex="1">
          <mxGeometry x="250" y="666" width="120" height="60" as="geometry" />
        </mxCell>
        <mxCell id="mfC-1grWfwD6aIF15ioc-36" value="" style="edgeStyle=orthogonalEdgeStyle;rounded=0;orthogonalLoop=1;jettySize=auto;html=1;fontStyle=1" parent="1" source="mfC-1grWfwD6aIF15ioc-17" target="mfC-1grWfwD6aIF15ioc-18" edge="1">
          <mxGeometry relative="1" as="geometry" />
        </mxCell>
        <mxCell id="mfC-1grWfwD6aIF15ioc-17" value="Upload csv files to S3 (boto3)" style="rounded=0;whiteSpace=wrap;html=1;fontStyle=1" parent="1" vertex="1">
          <mxGeometry x="250" y="845" width="120" height="60" as="geometry" />
        </mxCell>
        <mxCell id="mfC-1grWfwD6aIF15ioc-37" value="" style="edgeStyle=orthogonalEdgeStyle;rounded=0;orthogonalLoop=1;jettySize=auto;html=1;fontStyle=1" parent="1" source="mfC-1grWfwD6aIF15ioc-18" target="mfC-1grWfwD6aIF15ioc-19" edge="1">
          <mxGeometry relative="1" as="geometry" />
        </mxCell>
        <mxCell id="mfC-1grWfwD6aIF15ioc-18" value="Serve via API (FastAPI)" style="rounded=0;whiteSpace=wrap;html=1;fontStyle=1" parent="1" vertex="1">
          <mxGeometry x="250" y="934" width="120" height="60" as="geometry" />
        </mxCell>
        <mxCell id="mfC-1grWfwD6aIF15ioc-19" value="Dashboard Developer&amp;nbsp;" style="rounded=0;whiteSpace=wrap;html=1;fontStyle=1" parent="1" vertex="1">
          <mxGeometry x="250" y="1020" width="120" height="60" as="geometry" />
        </mxCell>
        <mxCell id="mfC-1grWfwD6aIF15ioc-45" style="edgeStyle=orthogonalEdgeStyle;rounded=0;orthogonalLoop=1;jettySize=auto;html=1;entryX=0.5;entryY=0;entryDx=0;entryDy=0;fontStyle=1" parent="1" source="mfC-1grWfwD6aIF15ioc-15" target="mfC-1grWfwD6aIF15ioc-17" edge="1">
          <mxGeometry relative="1" as="geometry">
            <Array as="points">
              <mxPoint x="250" y="830" />
              <mxPoint x="310" y="830" />
            </Array>
          </mxGeometry>
        </mxCell>
        <mxCell id="mfC-1grWfwD6aIF15ioc-15" value="Full Model Data&amp;nbsp;&lt;div&gt;(csv)&amp;nbsp;&lt;/div&gt;" style="shape=parallelogram;perimeter=parallelogramPerimeter;whiteSpace=wrap;html=1;fixedSize=1;container=0;fontStyle=1" parent="1" vertex="1">
          <mxGeometry x="190" y="760" width="120" height="60" as="geometry" />
        </mxCell>
        <mxCell id="mfC-1grWfwD6aIF15ioc-47" style="edgeStyle=orthogonalEdgeStyle;rounded=0;orthogonalLoop=1;jettySize=auto;html=1;entryX=0.5;entryY=0;entryDx=0;entryDy=0;fontStyle=1" parent="1" source="mfC-1grWfwD6aIF15ioc-16" target="mfC-1grWfwD6aIF15ioc-17" edge="1">
          <mxGeometry relative="1" as="geometry">
            <Array as="points">
              <mxPoint x="370" y="830" />
              <mxPoint x="310" y="830" />
            </Array>
          </mxGeometry>
        </mxCell>
        <mxCell id="mfC-1grWfwD6aIF15ioc-16" value="Summary Statistics (csv)" style="shape=parallelogram;perimeter=parallelogramPerimeter;whiteSpace=wrap;html=1;fixedSize=1;container=0;fontStyle=1" parent="1" vertex="1">
          <mxGeometry x="310" y="760" width="120" height="60" as="geometry" />
        </mxCell>
        <mxCell id="a9LuFVvduKulaQ7Tb8uo-1" value="&lt;span&gt;User creates user ID (how?)&amp;nbsp;&lt;/span&gt;" style="rounded=1;whiteSpace=wrap;html=1;fillColor=#FFFFCC;fontStyle=1" vertex="1" parent="1">
          <mxGeometry x="450" y="30" width="120" height="60" as="geometry" />
        </mxCell>
        <mxCell id="a9LuFVvduKulaQ7Tb8uo-2" value="&lt;span&gt;User goes to &quot;portal&quot;&amp;nbsp;&lt;/span&gt;&lt;div&gt;&lt;span&gt;asks for email, name, country&lt;/span&gt;&lt;/div&gt;" style="rounded=1;whiteSpace=wrap;html=1;fillColor=#FFFFCC;fontStyle=1" vertex="1" parent="1">
          <mxGeometry x="630" y="15" width="120" height="90" as="geometry" />
        </mxCell>
        <mxCell id="a9LuFVvduKulaQ7Tb8uo-4" value="&lt;span&gt;Problem: What if model doesn&#39;t run?&amp;nbsp;&lt;/span&gt;" style="rounded=1;whiteSpace=wrap;html=1;fillColor=#FFFFCC;fontStyle=1" vertex="1" parent="1">
          <mxGeometry x="471" y="666" width="130" height="60" as="geometry" />
        </mxCell>
        <mxCell id="a9LuFVvduKulaQ7Tb8uo-5" value="&lt;span&gt;naming convention - userid&amp;nbsp;&lt;/span&gt;" style="rounded=1;whiteSpace=wrap;html=1;fillColor=#FFFFCC;fontStyle=1" vertex="1" parent="1">
          <mxGeometry x="50" y="220" width="160" height="60" as="geometry" />
        </mxCell>
        <mxCell id="a9LuFVvduKulaQ7Tb8uo-6" value="&lt;span&gt;Email for security communications etc.&lt;/span&gt;&lt;div&gt;&lt;span&gt;&lt;br&gt;&lt;/span&gt;&lt;/div&gt;&lt;div&gt;&lt;span&gt;Where is this stored? RDS?&lt;/span&gt;&lt;/div&gt;" style="rounded=1;whiteSpace=wrap;html=1;fillColor=#FFFFCC;fontStyle=1" vertex="1" parent="1">
          <mxGeometry x="630" y="240" width="160" height="79" as="geometry" />
        </mxCell>
        <mxCell id="a9LuFVvduKulaQ7Tb8uo-7" value="&lt;span&gt;Ask user number of questions about their info and whether they are ok with cloud stuff&amp;nbsp;&lt;/span&gt;" style="rounded=1;whiteSpace=wrap;html=1;fillColor=#FFFFCC;fontStyle=1" vertex="1" parent="1">
          <mxGeometry x="630" y="131" width="160" height="79" as="geometry" />
        </mxCell>
        <mxCell id="a9LuFVvduKulaQ7Tb8uo-8" value="Online/Cloud Version of System" style="text;html=1;align=center;verticalAlign=middle;resizable=0;points=[];autosize=1;strokeColor=none;fillColor=none;fontStyle=1" vertex="1" parent="1">
          <mxGeometry width="190" height="30" as="geometry" />
        </mxCell>
        <mxCell id="a9LuFVvduKulaQ7Tb8uo-9" value="Create an account" style="text;html=1;align=center;verticalAlign=middle;resizable=0;points=[];autosize=1;strokeColor=none;fillColor=none;" vertex="1" parent="1">
          <mxGeometry x="860" y="45" width="120" height="30" as="geometry" />
        </mxCell>
        <mxCell id="a9LuFVvduKulaQ7Tb8uo-10" value="Account view&lt;div&gt;&lt;br&gt;&lt;/div&gt;&lt;div&gt;Files that they have&lt;/div&gt;&lt;div&gt;Number of times they use the system&lt;/div&gt;&lt;div&gt;Update acct questions&amp;nbsp;&lt;/div&gt;" style="text;html=1;align=center;verticalAlign=middle;resizable=0;points=[];autosize=1;strokeColor=none;fillColor=none;" vertex="1" parent="1">
          <mxGeometry x="820" y="120" width="220" height="90" as="geometry" />
        </mxCell>
      </root>
    </mxGraphModel>
  </diagram>
  <diagram name="Copy of Overview of Data Flow" id="aSsl8Zi7PTdRoOpk-M-Z">
    <mxGraphModel dx="1533" dy="763" grid="1" gridSize="10" guides="1" tooltips="1" connect="1" arrows="1" fold="1" page="1" pageScale="1" pageWidth="850" pageHeight="1100" math="0" shadow="0">
      <root>
        <mxCell id="cSzbFJzJaZirvO9sWLEO-0" />
        <mxCell id="cSzbFJzJaZirvO9sWLEO-1" parent="cSzbFJzJaZirvO9sWLEO-0" />
        <mxCell id="cSzbFJzJaZirvO9sWLEO-2" value="" style="edgeStyle=orthogonalEdgeStyle;rounded=0;orthogonalLoop=1;jettySize=auto;html=1;fontStyle=1" edge="1" parent="cSzbFJzJaZirvO9sWLEO-1" source="cSzbFJzJaZirvO9sWLEO-3" target="cSzbFJzJaZirvO9sWLEO-5">
          <mxGeometry relative="1" as="geometry" />
        </mxCell>
        <mxCell id="cSzbFJzJaZirvO9sWLEO-3" value="Parameter Input File (Excel)" style="ellipse;whiteSpace=wrap;html=1;fontStyle=1" vertex="1" parent="cSzbFJzJaZirvO9sWLEO-1">
          <mxGeometry x="250" y="20" width="120" height="80" as="geometry" />
        </mxCell>
        <mxCell id="cSzbFJzJaZirvO9sWLEO-4" value="" style="edgeStyle=orthogonalEdgeStyle;rounded=0;orthogonalLoop=1;jettySize=auto;html=1;fontStyle=1" edge="1" parent="cSzbFJzJaZirvO9sWLEO-1" source="cSzbFJzJaZirvO9sWLEO-5" target="cSzbFJzJaZirvO9sWLEO-9">
          <mxGeometry relative="1" as="geometry" />
        </mxCell>
        <mxCell id="cSzbFJzJaZirvO9sWLEO-5" value="Upload Excel file to S3 (boto3)" style="rounded=0;whiteSpace=wrap;html=1;fontStyle=1" vertex="1" parent="cSzbFJzJaZirvO9sWLEO-1">
          <mxGeometry x="250" y="131" width="120" height="60" as="geometry" />
        </mxCell>
        <mxCell id="cSzbFJzJaZirvO9sWLEO-6" value="" style="edgeStyle=orthogonalEdgeStyle;rounded=0;orthogonalLoop=1;jettySize=auto;html=1;fontStyle=1" edge="1" parent="cSzbFJzJaZirvO9sWLEO-1" source="cSzbFJzJaZirvO9sWLEO-7" target="cSzbFJzJaZirvO9sWLEO-13">
          <mxGeometry relative="1" as="geometry" />
        </mxCell>
        <mxCell id="cSzbFJzJaZirvO9sWLEO-7" value="YAML files" style="shape=parallelogram;perimeter=parallelogramPerimeter;whiteSpace=wrap;html=1;fixedSize=1;fontStyle=1" vertex="1" parent="cSzbFJzJaZirvO9sWLEO-1">
          <mxGeometry x="250" y="310" width="120" height="60" as="geometry" />
        </mxCell>
        <mxCell id="cSzbFJzJaZirvO9sWLEO-8" value="" style="edgeStyle=orthogonalEdgeStyle;rounded=0;orthogonalLoop=1;jettySize=auto;html=1;fontStyle=1" edge="1" parent="cSzbFJzJaZirvO9sWLEO-1" source="cSzbFJzJaZirvO9sWLEO-9" target="cSzbFJzJaZirvO9sWLEO-7">
          <mxGeometry relative="1" as="geometry" />
        </mxCell>
        <mxCell id="cSzbFJzJaZirvO9sWLEO-9" value="&lt;div&gt;Read Excel file and convert to YAML files&amp;nbsp; (pandas, pyYAML)&lt;/div&gt;" style="rounded=0;whiteSpace=wrap;html=1;fontStyle=1" vertex="1" parent="cSzbFJzJaZirvO9sWLEO-1">
          <mxGeometry x="250" y="220" width="120" height="60" as="geometry" />
        </mxCell>
        <mxCell id="cSzbFJzJaZirvO9sWLEO-10" value="" style="edgeStyle=orthogonalEdgeStyle;rounded=0;orthogonalLoop=1;jettySize=auto;html=1;fontStyle=1" edge="1" parent="cSzbFJzJaZirvO9sWLEO-1" source="cSzbFJzJaZirvO9sWLEO-11" target="cSzbFJzJaZirvO9sWLEO-15">
          <mxGeometry relative="1" as="geometry" />
        </mxCell>
        <mxCell id="cSzbFJzJaZirvO9sWLEO-11" value="Serve via API (FastAPI)" style="rounded=0;whiteSpace=wrap;html=1;fontStyle=1" vertex="1" parent="cSzbFJzJaZirvO9sWLEO-1">
          <mxGeometry x="250" y="488" width="120" height="60" as="geometry" />
        </mxCell>
        <mxCell id="cSzbFJzJaZirvO9sWLEO-12" value="" style="edgeStyle=orthogonalEdgeStyle;rounded=0;orthogonalLoop=1;jettySize=auto;html=1;fontStyle=1" edge="1" parent="cSzbFJzJaZirvO9sWLEO-1" source="cSzbFJzJaZirvO9sWLEO-13" target="cSzbFJzJaZirvO9sWLEO-11">
          <mxGeometry relative="1" as="geometry" />
        </mxCell>
        <mxCell id="cSzbFJzJaZirvO9sWLEO-13" value="Upload YAML file to S3 (boto3)" style="rounded=0;whiteSpace=wrap;html=1;fontStyle=1" vertex="1" parent="cSzbFJzJaZirvO9sWLEO-1">
          <mxGeometry x="250" y="399" width="120" height="60" as="geometry" />
        </mxCell>
        <mxCell id="cSzbFJzJaZirvO9sWLEO-14" value="" style="edgeStyle=orthogonalEdgeStyle;rounded=0;orthogonalLoop=1;jettySize=auto;html=1;fontStyle=1" edge="1" parent="cSzbFJzJaZirvO9sWLEO-1" source="cSzbFJzJaZirvO9sWLEO-15" target="cSzbFJzJaZirvO9sWLEO-18">
          <mxGeometry relative="1" as="geometry" />
        </mxCell>
        <mxCell id="cSzbFJzJaZirvO9sWLEO-15" value="YAML file accessed by model" style="rounded=0;whiteSpace=wrap;html=1;fontStyle=1" vertex="1" parent="cSzbFJzJaZirvO9sWLEO-1">
          <mxGeometry x="250" y="577" width="120" height="60" as="geometry" />
        </mxCell>
        <mxCell id="cSzbFJzJaZirvO9sWLEO-16" style="edgeStyle=orthogonalEdgeStyle;rounded=0;orthogonalLoop=1;jettySize=auto;html=1;entryX=0.5;entryY=0;entryDx=0;entryDy=0;fontStyle=1" edge="1" parent="cSzbFJzJaZirvO9sWLEO-1" source="cSzbFJzJaZirvO9sWLEO-18" target="cSzbFJzJaZirvO9sWLEO-25">
          <mxGeometry relative="1" as="geometry" />
        </mxCell>
        <mxCell id="cSzbFJzJaZirvO9sWLEO-17" style="edgeStyle=orthogonalEdgeStyle;rounded=0;orthogonalLoop=1;jettySize=auto;html=1;entryX=0.5;entryY=0;entryDx=0;entryDy=0;fontStyle=1" edge="1" parent="cSzbFJzJaZirvO9sWLEO-1" source="cSzbFJzJaZirvO9sWLEO-18" target="cSzbFJzJaZirvO9sWLEO-27">
          <mxGeometry relative="1" as="geometry" />
        </mxCell>
        <mxCell id="cSzbFJzJaZirvO9sWLEO-18" value="Model Run" style="rounded=0;whiteSpace=wrap;html=1;fontStyle=1" vertex="1" parent="cSzbFJzJaZirvO9sWLEO-1">
          <mxGeometry x="250" y="666" width="120" height="60" as="geometry" />
        </mxCell>
        <mxCell id="cSzbFJzJaZirvO9sWLEO-19" value="" style="edgeStyle=orthogonalEdgeStyle;rounded=0;orthogonalLoop=1;jettySize=auto;html=1;fontStyle=1" edge="1" parent="cSzbFJzJaZirvO9sWLEO-1" source="cSzbFJzJaZirvO9sWLEO-20" target="cSzbFJzJaZirvO9sWLEO-22">
          <mxGeometry relative="1" as="geometry" />
        </mxCell>
        <mxCell id="cSzbFJzJaZirvO9sWLEO-20" value="Upload csv files to S3 (boto3)" style="rounded=0;whiteSpace=wrap;html=1;fontStyle=1" vertex="1" parent="cSzbFJzJaZirvO9sWLEO-1">
          <mxGeometry x="250" y="845" width="120" height="60" as="geometry" />
        </mxCell>
        <mxCell id="cSzbFJzJaZirvO9sWLEO-21" value="" style="edgeStyle=orthogonalEdgeStyle;rounded=0;orthogonalLoop=1;jettySize=auto;html=1;fontStyle=1" edge="1" parent="cSzbFJzJaZirvO9sWLEO-1" source="cSzbFJzJaZirvO9sWLEO-22" target="cSzbFJzJaZirvO9sWLEO-23">
          <mxGeometry relative="1" as="geometry" />
        </mxCell>
        <mxCell id="cSzbFJzJaZirvO9sWLEO-22" value="Serve via API (FastAPI)" style="rounded=0;whiteSpace=wrap;html=1;fontStyle=1" vertex="1" parent="cSzbFJzJaZirvO9sWLEO-1">
          <mxGeometry x="250" y="934" width="120" height="60" as="geometry" />
        </mxCell>
        <mxCell id="cSzbFJzJaZirvO9sWLEO-23" value="Dashboard Developer&amp;nbsp;" style="rounded=0;whiteSpace=wrap;html=1;fontStyle=1" vertex="1" parent="cSzbFJzJaZirvO9sWLEO-1">
          <mxGeometry x="250" y="1020" width="120" height="60" as="geometry" />
        </mxCell>
        <mxCell id="cSzbFJzJaZirvO9sWLEO-24" style="edgeStyle=orthogonalEdgeStyle;rounded=0;orthogonalLoop=1;jettySize=auto;html=1;entryX=0.5;entryY=0;entryDx=0;entryDy=0;fontStyle=1" edge="1" parent="cSzbFJzJaZirvO9sWLEO-1" source="cSzbFJzJaZirvO9sWLEO-25" target="cSzbFJzJaZirvO9sWLEO-20">
          <mxGeometry relative="1" as="geometry">
            <Array as="points">
              <mxPoint x="250" y="830" />
              <mxPoint x="310" y="830" />
            </Array>
          </mxGeometry>
        </mxCell>
        <mxCell id="cSzbFJzJaZirvO9sWLEO-25" value="Full Model Data&amp;nbsp;&lt;div&gt;(csv)&amp;nbsp;&lt;/div&gt;" style="shape=parallelogram;perimeter=parallelogramPerimeter;whiteSpace=wrap;html=1;fixedSize=1;container=0;fontStyle=1" vertex="1" parent="cSzbFJzJaZirvO9sWLEO-1">
          <mxGeometry x="190" y="760" width="120" height="60" as="geometry" />
        </mxCell>
        <mxCell id="cSzbFJzJaZirvO9sWLEO-26" style="edgeStyle=orthogonalEdgeStyle;rounded=0;orthogonalLoop=1;jettySize=auto;html=1;entryX=0.5;entryY=0;entryDx=0;entryDy=0;fontStyle=1" edge="1" parent="cSzbFJzJaZirvO9sWLEO-1" source="cSzbFJzJaZirvO9sWLEO-27" target="cSzbFJzJaZirvO9sWLEO-20">
          <mxGeometry relative="1" as="geometry">
            <Array as="points">
              <mxPoint x="370" y="830" />
              <mxPoint x="310" y="830" />
            </Array>
          </mxGeometry>
        </mxCell>
        <mxCell id="cSzbFJzJaZirvO9sWLEO-27" value="Summary Statistics (csv)" style="shape=parallelogram;perimeter=parallelogramPerimeter;whiteSpace=wrap;html=1;fixedSize=1;container=0;fontStyle=1" vertex="1" parent="cSzbFJzJaZirvO9sWLEO-1">
          <mxGeometry x="310" y="760" width="120" height="60" as="geometry" />
        </mxCell>
        <mxCell id="cSzbFJzJaZirvO9sWLEO-28" value="&lt;span&gt;User creates user ID (how?)&amp;nbsp;&lt;/span&gt;" style="rounded=1;whiteSpace=wrap;html=1;fillColor=#FFFFCC;fontStyle=1" vertex="1" parent="cSzbFJzJaZirvO9sWLEO-1">
          <mxGeometry x="450" y="30" width="120" height="60" as="geometry" />
        </mxCell>
        <mxCell id="cSzbFJzJaZirvO9sWLEO-29" value="&lt;span&gt;User goes to &quot;portal&quot;&amp;nbsp;&lt;/span&gt;&lt;div&gt;&lt;span&gt;asks for email, name, country&lt;/span&gt;&lt;/div&gt;" style="rounded=1;whiteSpace=wrap;html=1;fillColor=#FFFFCC;fontStyle=1" vertex="1" parent="cSzbFJzJaZirvO9sWLEO-1">
          <mxGeometry x="630" y="15" width="120" height="90" as="geometry" />
        </mxCell>
        <mxCell id="cSzbFJzJaZirvO9sWLEO-30" value="&lt;span&gt;Problem: What if model doesn&#39;t run?&amp;nbsp;&lt;/span&gt;" style="rounded=1;whiteSpace=wrap;html=1;fillColor=#FFFFCC;fontStyle=1" vertex="1" parent="cSzbFJzJaZirvO9sWLEO-1">
          <mxGeometry x="471" y="666" width="130" height="60" as="geometry" />
        </mxCell>
        <mxCell id="cSzbFJzJaZirvO9sWLEO-31" value="&lt;span&gt;naming convention - userid&amp;nbsp;&lt;/span&gt;" style="rounded=1;whiteSpace=wrap;html=1;fillColor=#FFFFCC;fontStyle=1" vertex="1" parent="cSzbFJzJaZirvO9sWLEO-1">
          <mxGeometry x="50" y="220" width="160" height="60" as="geometry" />
        </mxCell>
        <mxCell id="cSzbFJzJaZirvO9sWLEO-32" value="&lt;span&gt;Email for security communications etc.&lt;/span&gt;&lt;div&gt;&lt;span&gt;&lt;br&gt;&lt;/span&gt;&lt;/div&gt;&lt;div&gt;&lt;span&gt;Where is this stored? RDS?&lt;/span&gt;&lt;/div&gt;" style="rounded=1;whiteSpace=wrap;html=1;fillColor=#FFFFCC;fontStyle=1" vertex="1" parent="cSzbFJzJaZirvO9sWLEO-1">
          <mxGeometry x="630" y="240" width="160" height="79" as="geometry" />
        </mxCell>
        <mxCell id="cSzbFJzJaZirvO9sWLEO-33" value="&lt;span&gt;Ask user number of questions about their info and whether they are ok with cloud stuff&amp;nbsp;&lt;/span&gt;" style="rounded=1;whiteSpace=wrap;html=1;fillColor=#FFFFCC;fontStyle=1" vertex="1" parent="cSzbFJzJaZirvO9sWLEO-1">
          <mxGeometry x="630" y="131" width="160" height="79" as="geometry" />
        </mxCell>
        <mxCell id="cSzbFJzJaZirvO9sWLEO-34" value="Online/Cloud Version of System" style="text;html=1;align=center;verticalAlign=middle;resizable=0;points=[];autosize=1;strokeColor=none;fillColor=none;fontStyle=1" vertex="1" parent="cSzbFJzJaZirvO9sWLEO-1">
          <mxGeometry width="190" height="30" as="geometry" />
        </mxCell>
        <mxCell id="cSzbFJzJaZirvO9sWLEO-35" value="Create an account" style="text;html=1;align=center;verticalAlign=middle;resizable=0;points=[];autosize=1;strokeColor=none;fillColor=none;" vertex="1" parent="cSzbFJzJaZirvO9sWLEO-1">
          <mxGeometry x="860" y="45" width="120" height="30" as="geometry" />
        </mxCell>
        <mxCell id="cSzbFJzJaZirvO9sWLEO-36" value="Account view&lt;div&gt;&lt;br&gt;&lt;/div&gt;&lt;div&gt;Files that they have&lt;/div&gt;&lt;div&gt;Number of times they use the system&lt;/div&gt;&lt;div&gt;Update acct questions&amp;nbsp;&lt;/div&gt;" style="text;html=1;align=center;verticalAlign=middle;resizable=0;points=[];autosize=1;strokeColor=none;fillColor=none;" vertex="1" parent="cSzbFJzJaZirvO9sWLEO-1">
          <mxGeometry x="820" y="120" width="220" height="90" as="geometry" />
        </mxCell>
      </root>
    </mxGraphModel>
  </diagram>
  <diagram name="Cloud-Based Online Dashboard Model Visualizer User Flow Diagram" id="x7p3js0zkzsePSg1ssVb">
    <mxGraphModel dx="1840" dy="949" grid="1" gridSize="10" guides="1" tooltips="1" connect="1" arrows="1" fold="1" page="1" pageScale="1" pageWidth="850" pageHeight="1100" math="0" shadow="0">
      <root>
        <mxCell id="wbcW512ZlzddPtO8vmb4-0" />
        <mxCell id="wbcW512ZlzddPtO8vmb4-1" parent="wbcW512ZlzddPtO8vmb4-0" />
        <mxCell id="d15GRNTymWzunxyTKzhl-9" value="" style="rounded=1;whiteSpace=wrap;html=1;" vertex="1" parent="wbcW512ZlzddPtO8vmb4-1">
          <mxGeometry x="1440" y="43" width="180" height="350" as="geometry" />
        </mxCell>
        <mxCell id="wbcW512ZlzddPtO8vmb4-2" value="&lt;font style=&quot;font-size: 24px;&quot;&gt;&lt;span style=&quot;font-weight: normal;&quot;&gt;Cloud-Based Online Dashboard Model Visualizer &lt;/span&gt;User Flow&lt;span style=&quot;font-weight: normal;&quot;&gt; Diagram&lt;/span&gt;&lt;/font&gt;" style="text;html=1;align=center;verticalAlign=middle;resizable=0;points=[];autosize=1;strokeColor=none;fillColor=none;fontStyle=1" vertex="1" parent="wbcW512ZlzddPtO8vmb4-1">
          <mxGeometry x="100" y="3" width="760" height="40" as="geometry" />
        </mxCell>
        <mxCell id="wbcW512ZlzddPtO8vmb4-3" value="" style="rounded=1;whiteSpace=wrap;html=1;" vertex="1" parent="wbcW512ZlzddPtO8vmb4-1">
          <mxGeometry x="100" y="80" width="280" height="680" as="geometry" />
        </mxCell>
        <mxCell id="wbcW512ZlzddPtO8vmb4-4" value="Log in or sign-up&amp;nbsp;" style="text;html=1;align=center;verticalAlign=middle;whiteSpace=wrap;rounded=0;" vertex="1" parent="wbcW512ZlzddPtO8vmb4-1">
          <mxGeometry x="95" y="80" width="190" height="30" as="geometry" />
        </mxCell>
        <mxCell id="wbcW512ZlzddPtO8vmb4-5" value="" style="edgeStyle=orthogonalEdgeStyle;rounded=0;orthogonalLoop=1;jettySize=auto;html=1;" edge="1" parent="wbcW512ZlzddPtO8vmb4-1" source="wbcW512ZlzddPtO8vmb4-6" target="wbcW512ZlzddPtO8vmb4-9">
          <mxGeometry relative="1" as="geometry" />
        </mxCell>
        <mxCell id="wbcW512ZlzddPtO8vmb4-6" value="Log in or sign-up" style="rounded=1;whiteSpace=wrap;html=1;" vertex="1" parent="wbcW512ZlzddPtO8vmb4-1">
          <mxGeometry x="180" y="120" width="100" height="60" as="geometry" />
        </mxCell>
        <mxCell id="wbcW512ZlzddPtO8vmb4-7" value="No" style="edgeStyle=orthogonalEdgeStyle;rounded=0;orthogonalLoop=1;jettySize=auto;html=1;fontStyle=1" edge="1" parent="wbcW512ZlzddPtO8vmb4-1" source="wbcW512ZlzddPtO8vmb4-9" target="wbcW512ZlzddPtO8vmb4-11">
          <mxGeometry relative="1" as="geometry">
            <Array as="points">
              <mxPoint x="315" y="265" />
            </Array>
          </mxGeometry>
        </mxCell>
        <mxCell id="wbcW512ZlzddPtO8vmb4-8" value="&lt;b&gt;Yes&lt;/b&gt;" style="edgeStyle=orthogonalEdgeStyle;rounded=0;orthogonalLoop=1;jettySize=auto;html=1;entryX=0;entryY=0.5;entryDx=0;entryDy=0;exitX=0;exitY=0.5;exitDx=0;exitDy=0;" edge="1" parent="wbcW512ZlzddPtO8vmb4-1" source="wbcW512ZlzddPtO8vmb4-9" target="wbcW512ZlzddPtO8vmb4-16">
          <mxGeometry relative="1" as="geometry" />
        </mxCell>
        <mxCell id="wbcW512ZlzddPtO8vmb4-9" value="Already a&amp;nbsp;&lt;div&gt;user?&lt;/div&gt;" style="rhombus;whiteSpace=wrap;html=1;" vertex="1" parent="wbcW512ZlzddPtO8vmb4-1">
          <mxGeometry x="175" y="230" width="110" height="70" as="geometry" />
        </mxCell>
        <mxCell id="wbcW512ZlzddPtO8vmb4-10" value="" style="edgeStyle=orthogonalEdgeStyle;rounded=0;orthogonalLoop=1;jettySize=auto;html=1;" edge="1" parent="wbcW512ZlzddPtO8vmb4-1" source="wbcW512ZlzddPtO8vmb4-11" target="wbcW512ZlzddPtO8vmb4-13">
          <mxGeometry relative="1" as="geometry" />
        </mxCell>
        <mxCell id="wbcW512ZlzddPtO8vmb4-11" value="Set-up a user id" style="rounded=1;whiteSpace=wrap;html=1;" vertex="1" parent="wbcW512ZlzddPtO8vmb4-1">
          <mxGeometry x="270" y="310" width="90" height="60" as="geometry" />
        </mxCell>
        <mxCell id="wbcW512ZlzddPtO8vmb4-12" style="edgeStyle=orthogonalEdgeStyle;rounded=0;orthogonalLoop=1;jettySize=auto;html=1;" edge="1" parent="wbcW512ZlzddPtO8vmb4-1" source="wbcW512ZlzddPtO8vmb4-13" target="wbcW512ZlzddPtO8vmb4-15">
          <mxGeometry relative="1" as="geometry" />
        </mxCell>
        <mxCell id="wbcW512ZlzddPtO8vmb4-13" value="Enter first name, last name, email, current role, country, language, consent&amp;nbsp;" style="rounded=1;whiteSpace=wrap;html=1;" vertex="1" parent="wbcW512ZlzddPtO8vmb4-1">
          <mxGeometry x="270" y="410" width="90" height="110" as="geometry" />
        </mxCell>
        <mxCell id="wbcW512ZlzddPtO8vmb4-14" style="edgeStyle=orthogonalEdgeStyle;rounded=0;orthogonalLoop=1;jettySize=auto;html=1;entryX=1;entryY=0.5;entryDx=0;entryDy=0;" edge="1" parent="wbcW512ZlzddPtO8vmb4-1" source="wbcW512ZlzddPtO8vmb4-15" target="wbcW512ZlzddPtO8vmb4-16">
          <mxGeometry relative="1" as="geometry" />
        </mxCell>
        <mxCell id="wbcW512ZlzddPtO8vmb4-15" value="User emailed user id" style="rounded=1;whiteSpace=wrap;html=1;" vertex="1" parent="wbcW512ZlzddPtO8vmb4-1">
          <mxGeometry x="270" y="560" width="90" height="60" as="geometry" />
        </mxCell>
        <mxCell id="i-LKCoifNKh-DDCfbG-E-6" style="edgeStyle=orthogonalEdgeStyle;rounded=0;orthogonalLoop=1;jettySize=auto;html=1;entryX=0;entryY=0.5;entryDx=0;entryDy=0;" edge="1" parent="wbcW512ZlzddPtO8vmb4-1" source="wbcW512ZlzddPtO8vmb4-16" target="i-LKCoifNKh-DDCfbG-E-0">
          <mxGeometry relative="1" as="geometry">
            <Array as="points">
              <mxPoint x="240" y="730" />
              <mxPoint x="400" y="730" />
              <mxPoint x="400" y="275" />
            </Array>
          </mxGeometry>
        </mxCell>
        <mxCell id="wbcW512ZlzddPtO8vmb4-16" value="Enter user id" style="rounded=1;whiteSpace=wrap;html=1;" vertex="1" parent="wbcW512ZlzddPtO8vmb4-1">
          <mxGeometry x="195" y="640" width="90" height="60" as="geometry" />
        </mxCell>
        <mxCell id="i-LKCoifNKh-DDCfbG-E-0" value="&lt;span style=&quot;font-size: 10px;&quot;&gt;Create parameter file or access past data?&lt;/span&gt;" style="rhombus;whiteSpace=wrap;html=1;" vertex="1" parent="wbcW512ZlzddPtO8vmb4-1">
          <mxGeometry x="440" y="240" width="110" height="70" as="geometry" />
        </mxCell>
        <mxCell id="i-LKCoifNKh-DDCfbG-E-16" style="edgeStyle=orthogonalEdgeStyle;rounded=0;orthogonalLoop=1;jettySize=auto;html=1;" edge="1" parent="wbcW512ZlzddPtO8vmb4-1" source="i-LKCoifNKh-DDCfbG-E-13" target="i-LKCoifNKh-DDCfbG-E-11">
          <mxGeometry relative="1" as="geometry" />
        </mxCell>
        <mxCell id="i-LKCoifNKh-DDCfbG-E-11" value="&lt;font style=&quot;font-size: 11px;&quot;&gt;Visualize Model&lt;/font&gt;" style="rhombus;whiteSpace=wrap;html=1;" vertex="1" parent="wbcW512ZlzddPtO8vmb4-1">
          <mxGeometry x="960" y="370" width="110" height="70" as="geometry" />
        </mxCell>
        <mxCell id="i-LKCoifNKh-DDCfbG-E-9" value="&lt;b&gt;Access past data&lt;/b&gt;" style="edgeStyle=orthogonalEdgeStyle;rounded=0;orthogonalLoop=1;jettySize=auto;html=1;" edge="1" parent="wbcW512ZlzddPtO8vmb4-1" source="i-LKCoifNKh-DDCfbG-E-0" target="i-LKCoifNKh-DDCfbG-E-10">
          <mxGeometry relative="1" as="geometry">
            <Array as="points">
              <mxPoint x="495" y="405" />
            </Array>
          </mxGeometry>
        </mxCell>
        <mxCell id="i-LKCoifNKh-DDCfbG-E-17" value="" style="group" vertex="1" connectable="0" parent="wbcW512ZlzddPtO8vmb4-1">
          <mxGeometry x="580" y="105" width="800" height="170" as="geometry" />
        </mxCell>
        <mxCell id="wbcW512ZlzddPtO8vmb4-17" value="" style="rounded=1;whiteSpace=wrap;html=1;" vertex="1" parent="i-LKCoifNKh-DDCfbG-E-17">
          <mxGeometry x="35" width="765" height="170" as="geometry" />
        </mxCell>
        <mxCell id="wbcW512ZlzddPtO8vmb4-18" value="Run a model" style="text;html=1;align=center;verticalAlign=middle;whiteSpace=wrap;rounded=0;" vertex="1" parent="i-LKCoifNKh-DDCfbG-E-17">
          <mxGeometry width="190" height="30" as="geometry" />
        </mxCell>
        <mxCell id="i-LKCoifNKh-DDCfbG-E-14" value="" style="group" vertex="1" connectable="0" parent="i-LKCoifNKh-DDCfbG-E-17">
          <mxGeometry x="60" y="50" width="720" height="70" as="geometry" />
        </mxCell>
        <mxCell id="wbcW512ZlzddPtO8vmb4-19" value="User downloads Excel template (and instructions)" style="rounded=1;whiteSpace=wrap;html=1;" vertex="1" parent="i-LKCoifNKh-DDCfbG-E-14">
          <mxGeometry x="130" y="5" width="98" height="60" as="geometry" />
        </mxCell>
        <mxCell id="i-LKCoifNKh-DDCfbG-E-31" value="" style="edgeStyle=orthogonalEdgeStyle;rounded=0;orthogonalLoop=1;jettySize=auto;html=1;" edge="1" parent="i-LKCoifNKh-DDCfbG-E-14" source="wbcW512ZlzddPtO8vmb4-20" target="wbcW512ZlzddPtO8vmb4-19">
          <mxGeometry relative="1" as="geometry" />
        </mxCell>
        <mxCell id="wbcW512ZlzddPtO8vmb4-20" value="Species and number of parameters?" style="rhombus;whiteSpace=wrap;html=1;fillColor=#E6E6E6;" vertex="1" parent="i-LKCoifNKh-DDCfbG-E-14">
          <mxGeometry width="110" height="70" as="geometry" />
        </mxCell>
        <mxCell id="i-LKCoifNKh-DDCfbG-E-27" value="" style="edgeStyle=orthogonalEdgeStyle;rounded=0;orthogonalLoop=1;jettySize=auto;html=1;" edge="1" parent="i-LKCoifNKh-DDCfbG-E-14" source="wbcW512ZlzddPtO8vmb4-19" target="wbcW512ZlzddPtO8vmb4-23">
          <mxGeometry relative="1" as="geometry" />
        </mxCell>
        <mxCell id="wbcW512ZlzddPtO8vmb4-23" value="User uploads Excel template" style="rounded=1;whiteSpace=wrap;html=1;" vertex="1" parent="i-LKCoifNKh-DDCfbG-E-14">
          <mxGeometry x="251" y="5" width="100" height="60" as="geometry" />
        </mxCell>
        <mxCell id="i-LKCoifNKh-DDCfbG-E-28" value="" style="edgeStyle=orthogonalEdgeStyle;rounded=0;orthogonalLoop=1;jettySize=auto;html=1;" edge="1" parent="i-LKCoifNKh-DDCfbG-E-14" source="wbcW512ZlzddPtO8vmb4-23" target="wbcW512ZlzddPtO8vmb4-24">
          <mxGeometry relative="1" as="geometry" />
        </mxCell>
        <mxCell id="wbcW512ZlzddPtO8vmb4-24" value="Excel template converted to YAML files&amp;nbsp;" style="rounded=1;whiteSpace=wrap;html=1;" vertex="1" parent="i-LKCoifNKh-DDCfbG-E-14">
          <mxGeometry x="374" y="5" width="100" height="60" as="geometry" />
        </mxCell>
        <mxCell id="i-LKCoifNKh-DDCfbG-E-29" value="" style="edgeStyle=orthogonalEdgeStyle;rounded=0;orthogonalLoop=1;jettySize=auto;html=1;" edge="1" parent="i-LKCoifNKh-DDCfbG-E-14" source="wbcW512ZlzddPtO8vmb4-24" target="wbcW512ZlzddPtO8vmb4-25">
          <mxGeometry relative="1" as="geometry">
            <Array as="points">
              <mxPoint x="480" y="35" />
              <mxPoint x="480" y="35" />
            </Array>
          </mxGeometry>
        </mxCell>
        <mxCell id="wbcW512ZlzddPtO8vmb4-25" value="Appropriate model is run&amp;nbsp;" style="rounded=1;whiteSpace=wrap;html=1;" vertex="1" parent="i-LKCoifNKh-DDCfbG-E-14">
          <mxGeometry x="497" y="5" width="100" height="60" as="geometry" />
        </mxCell>
        <mxCell id="i-LKCoifNKh-DDCfbG-E-30" value="" style="edgeStyle=orthogonalEdgeStyle;rounded=0;orthogonalLoop=1;jettySize=auto;html=1;" edge="1" parent="i-LKCoifNKh-DDCfbG-E-14" source="wbcW512ZlzddPtO8vmb4-25" target="wbcW512ZlzddPtO8vmb4-26">
          <mxGeometry relative="1" as="geometry" />
        </mxCell>
        <mxCell id="wbcW512ZlzddPtO8vmb4-26" value="Two output files are generated" style="rounded=1;whiteSpace=wrap;html=1;" vertex="1" parent="i-LKCoifNKh-DDCfbG-E-14">
          <mxGeometry x="620" y="5" width="100" height="60" as="geometry" />
        </mxCell>
        <mxCell id="i-LKCoifNKh-DDCfbG-E-18" value="" style="group" vertex="1" connectable="0" parent="wbcW512ZlzddPtO8vmb4-1">
          <mxGeometry x="580" y="320" width="320" height="170" as="geometry" />
        </mxCell>
        <mxCell id="i-LKCoifNKh-DDCfbG-E-2" value="" style="rounded=1;whiteSpace=wrap;html=1;fillColor=#E6E6E6;" vertex="1" parent="i-LKCoifNKh-DDCfbG-E-18">
          <mxGeometry x="35" width="285" height="170" as="geometry" />
        </mxCell>
        <mxCell id="i-LKCoifNKh-DDCfbG-E-3" value="Access past data" style="text;html=1;align=center;verticalAlign=middle;whiteSpace=wrap;rounded=0;" vertex="1" parent="i-LKCoifNKh-DDCfbG-E-18">
          <mxGeometry y="5" width="190" height="30" as="geometry" />
        </mxCell>
        <mxCell id="i-LKCoifNKh-DDCfbG-E-10" value="Past data is displayed" style="rounded=1;whiteSpace=wrap;html=1;" vertex="1" parent="i-LKCoifNKh-DDCfbG-E-18">
          <mxGeometry x="60" y="55" width="100" height="60" as="geometry" />
        </mxCell>
        <mxCell id="i-LKCoifNKh-DDCfbG-E-13" value="User selects data to be visualized on dashboard" style="rounded=1;whiteSpace=wrap;html=1;" vertex="1" parent="i-LKCoifNKh-DDCfbG-E-18">
          <mxGeometry x="185.5" y="55" width="100" height="60" as="geometry" />
        </mxCell>
        <mxCell id="i-LKCoifNKh-DDCfbG-E-7" value="&lt;b&gt;Create parameter file&amp;nbsp;&lt;/b&gt;" style="edgeStyle=orthogonalEdgeStyle;rounded=0;orthogonalLoop=1;jettySize=auto;html=1;entryX=0;entryY=0.5;entryDx=0;entryDy=0;" edge="1" parent="wbcW512ZlzddPtO8vmb4-1" source="i-LKCoifNKh-DDCfbG-E-0" target="wbcW512ZlzddPtO8vmb4-20">
          <mxGeometry x="0.0033" relative="1" as="geometry">
            <Array as="points">
              <mxPoint x="495" y="190" />
            </Array>
            <mxPoint as="offset" />
          </mxGeometry>
        </mxCell>
        <mxCell id="i-LKCoifNKh-DDCfbG-E-33" style="edgeStyle=orthogonalEdgeStyle;rounded=0;orthogonalLoop=1;jettySize=auto;html=1;entryX=1;entryY=0.5;entryDx=0;entryDy=0;" edge="1" parent="wbcW512ZlzddPtO8vmb4-1" source="wbcW512ZlzddPtO8vmb4-26" target="i-LKCoifNKh-DDCfbG-E-11">
          <mxGeometry relative="1" as="geometry">
            <Array as="points">
              <mxPoint x="1310" y="405" />
            </Array>
          </mxGeometry>
        </mxCell>
        <mxCell id="wbcW512ZlzddPtO8vmb4-21" value="" style="rounded=1;whiteSpace=wrap;html=1;" vertex="1" parent="wbcW512ZlzddPtO8vmb4-1">
          <mxGeometry x="609.6296296296297" y="530" width="770.3703703703703" height="190" as="geometry" />
        </mxCell>
        <mxCell id="wbcW512ZlzddPtO8vmb4-22" value="Visualize a model" style="text;html=1;align=center;verticalAlign=middle;whiteSpace=wrap;rounded=0;" vertex="1" parent="wbcW512ZlzddPtO8vmb4-1">
          <mxGeometry x="580" y="690" width="187.6543209876543" height="30" as="geometry" />
        </mxCell>
        <mxCell id="wbcW512ZlzddPtO8vmb4-27" value="Output files fetched by dashboard app" style="rounded=1;whiteSpace=wrap;html=1;" vertex="1" parent="wbcW512ZlzddPtO8vmb4-1">
          <mxGeometry x="639.2592592592592" y="605" width="98.76543209876543" height="60" as="geometry" />
        </mxCell>
        <mxCell id="wbcW512ZlzddPtO8vmb4-28" value="Output files fetched by dashboard app" style="rounded=1;whiteSpace=wrap;html=1;" vertex="1" parent="wbcW512ZlzddPtO8vmb4-1">
          <mxGeometry x="781.4814814814815" y="605" width="98.76543209876543" height="60" as="geometry" />
        </mxCell>
        <mxCell id="wbcW512ZlzddPtO8vmb4-29" value="Output visualized" style="rounded=1;whiteSpace=wrap;html=1;" vertex="1" parent="wbcW512ZlzddPtO8vmb4-1">
          <mxGeometry x="923.7037037037037" y="605" width="98.76543209876543" height="60" as="geometry" />
        </mxCell>
        <mxCell id="wbcW512ZlzddPtO8vmb4-30" value="Download output files" style="rhombus;whiteSpace=wrap;html=1;" vertex="1" parent="wbcW512ZlzddPtO8vmb4-1">
          <mxGeometry x="1063.9506172839506" y="550" width="108.64197530864197" height="70" as="geometry" />
        </mxCell>
        <mxCell id="wbcW512ZlzddPtO8vmb4-31" value="Output csv files downloaded&amp;nbsp;" style="rounded=1;whiteSpace=wrap;html=1;" vertex="1" parent="wbcW512ZlzddPtO8vmb4-1">
          <mxGeometry x="1220.0004938271604" y="555" width="98.76543209876543" height="60" as="geometry" />
        </mxCell>
        <mxCell id="i-LKCoifNKh-DDCfbG-E-19" style="edgeStyle=orthogonalEdgeStyle;rounded=0;orthogonalLoop=1;jettySize=auto;html=1;entryX=0;entryY=0.5;entryDx=0;entryDy=0;" edge="1" parent="wbcW512ZlzddPtO8vmb4-1" source="wbcW512ZlzddPtO8vmb4-27" target="wbcW512ZlzddPtO8vmb4-28">
          <mxGeometry relative="1" as="geometry" />
        </mxCell>
        <mxCell id="i-LKCoifNKh-DDCfbG-E-20" style="edgeStyle=orthogonalEdgeStyle;rounded=0;orthogonalLoop=1;jettySize=auto;html=1;" edge="1" parent="wbcW512ZlzddPtO8vmb4-1" source="wbcW512ZlzddPtO8vmb4-28" target="wbcW512ZlzddPtO8vmb4-29">
          <mxGeometry relative="1" as="geometry" />
        </mxCell>
        <mxCell id="i-LKCoifNKh-DDCfbG-E-22" style="edgeStyle=orthogonalEdgeStyle;rounded=0;orthogonalLoop=1;jettySize=auto;html=1;entryX=0;entryY=0.5;entryDx=0;entryDy=0;" edge="1" parent="wbcW512ZlzddPtO8vmb4-1" source="wbcW512ZlzddPtO8vmb4-29" target="wbcW512ZlzddPtO8vmb4-30">
          <mxGeometry relative="1" as="geometry" />
        </mxCell>
        <mxCell id="i-LKCoifNKh-DDCfbG-E-23" style="edgeStyle=orthogonalEdgeStyle;rounded=0;orthogonalLoop=1;jettySize=auto;html=1;entryX=0;entryY=0.5;entryDx=0;entryDy=0;" edge="1" parent="wbcW512ZlzddPtO8vmb4-1" source="wbcW512ZlzddPtO8vmb4-30" target="wbcW512ZlzddPtO8vmb4-31">
          <mxGeometry relative="1" as="geometry" />
        </mxCell>
        <mxCell id="i-LKCoifNKh-DDCfbG-E-38" style="edgeStyle=orthogonalEdgeStyle;rounded=0;orthogonalLoop=1;jettySize=auto;html=1;entryX=0;entryY=0.5;entryDx=0;entryDy=0;" edge="1" parent="wbcW512ZlzddPtO8vmb4-1" source="i-LKCoifNKh-DDCfbG-E-35" target="i-LKCoifNKh-DDCfbG-E-36">
          <mxGeometry relative="1" as="geometry" />
        </mxCell>
        <mxCell id="i-LKCoifNKh-DDCfbG-E-35" value="Download visualization as report" style="rhombus;whiteSpace=wrap;html=1;" vertex="1" parent="wbcW512ZlzddPtO8vmb4-1">
          <mxGeometry x="1063.9506172839506" y="635" width="108.64197530864197" height="70" as="geometry" />
        </mxCell>
        <mxCell id="i-LKCoifNKh-DDCfbG-E-36" value="PDF downloaded" style="rounded=1;whiteSpace=wrap;html=1;" vertex="1" parent="wbcW512ZlzddPtO8vmb4-1">
          <mxGeometry x="1220.0004938271604" y="640" width="98.76543209876543" height="60" as="geometry" />
        </mxCell>
        <mxCell id="i-LKCoifNKh-DDCfbG-E-37" style="edgeStyle=orthogonalEdgeStyle;rounded=0;orthogonalLoop=1;jettySize=auto;html=1;entryX=0.056;entryY=0.5;entryDx=0;entryDy=0;entryPerimeter=0;" edge="1" parent="wbcW512ZlzddPtO8vmb4-1" source="wbcW512ZlzddPtO8vmb4-29" target="i-LKCoifNKh-DDCfbG-E-35">
          <mxGeometry relative="1" as="geometry" />
        </mxCell>
        <mxCell id="d15GRNTymWzunxyTKzhl-2" value="" style="group" vertex="1" connectable="0" parent="wbcW512ZlzddPtO8vmb4-1">
          <mxGeometry x="1360" y="170" width="320" height="170" as="geometry" />
        </mxCell>
        <mxCell id="d15GRNTymWzunxyTKzhl-0" value="&lt;b&gt;Legend&lt;/b&gt;" style="text;html=1;align=center;verticalAlign=middle;whiteSpace=wrap;rounded=0;" vertex="1" parent="d15GRNTymWzunxyTKzhl-2">
          <mxGeometry x="135" y="-120" width="60" height="30" as="geometry" />
        </mxCell>
        <mxCell id="d15GRNTymWzunxyTKzhl-1" value="User decision" style="rhombus;whiteSpace=wrap;html=1;" vertex="1" parent="d15GRNTymWzunxyTKzhl-2">
          <mxGeometry x="110" y="-80" width="110" height="70" as="geometry" />
        </mxCell>
        <mxCell id="d15GRNTymWzunxyTKzhl-3" value="gray = unsure of process?&amp;nbsp;" style="rounded=1;whiteSpace=wrap;html=1;fillColor=#E6E6E6;" vertex="1" parent="d15GRNTymWzunxyTKzhl-2">
          <mxGeometry x="110" y="10" width="115" height="70" as="geometry" />
        </mxCell>
        <mxCell id="d15GRNTymWzunxyTKzhl-7" value="process" style="rounded=1;whiteSpace=wrap;html=1;" vertex="1" parent="d15GRNTymWzunxyTKzhl-2">
          <mxGeometry x="110" y="110" width="120" height="60" as="geometry" />
        </mxCell>
        <mxCell id="i-LKCoifNKh-DDCfbG-E-34" style="edgeStyle=orthogonalEdgeStyle;rounded=0;orthogonalLoop=1;jettySize=auto;html=1;" edge="1" parent="wbcW512ZlzddPtO8vmb4-1" source="i-LKCoifNKh-DDCfbG-E-11" target="wbcW512ZlzddPtO8vmb4-27">
          <mxGeometry relative="1" as="geometry">
            <Array as="points">
              <mxPoint x="1015" y="510" />
              <mxPoint x="689" y="510" />
            </Array>
          </mxGeometry>
        </mxCell>
      </root>
    </mxGraphModel>
  </diagram>
</mxfile>
